<?xml version="1.0" encoding="utf-8"?>
<!-- Generator: Adobe Illustrator 19.1.0, SVG Export Plug-In . SVG Version: 6.00 Build 0)  -->
<!DOCTYPE svg PUBLIC "-//W3C//DTD SVG 1.1//EN" "http://www.w3.org/Graphics/SVG/1.1/DTD/svg11.dtd">
<svg version="1.1" id="Layer_1" xmlns="http://www.w3.org/2000/svg" xmlns:xlink="http://www.w3.org/1999/xlink" x="0px" y="0px"
	 viewBox="0 0 256.7 76.7" enable-background="new 0 0 256.7 76.7" xml:space="preserve">
<g>
	<g>
		<g enable-background="new    ">
			<path fill="#676767" d="M146.4,48.7V53c0,0.9-0.3,1.5-1.5,1.5h-21.7c-1.2,0-1.5-0.6-1.5-1.5V21.7c0-1.2,0.6-1.5,1.5-1.5h5.2
				c0.9,0,1.5,0.3,1.5,1.5v25.5h15C146.1,47.2,146.4,47.8,146.4,48.7z"/>
		</g>
	</g>
	<g>
		<g enable-background="new    ">
			<path fill="#676767" d="M181.4,54.5H176c-1.1,0-1.6-0.3-2-1.6l-1.5-4.1h-12.8l-1.5,4.1c-0.4,1.3-0.8,1.6-2,1.6h-5.5
				c-1.1,0-1.1-0.8-0.9-1.5l11.6-31.3c0.4-1.1,1-1.6,2.1-1.6h5c1.1,0,1.7,0.5,2.1,1.6L182.3,53C182.6,53.7,182.6,54.5,181.4,54.5z
				 M170.1,41.5L166.1,30l-3.9,11.5H170.1z"/>
		</g>
	</g>
	<g>
		<g enable-background="new    ">
			<path fill="#676767" d="M214.7,44.5c0,6.6-5.2,10-12.4,10H187c-1.2,0-1.5-0.6-1.5-1.5V21.6c0-0.9,0.3-1.5,1.5-1.5h14.6
				c8.5,0,12.2,4.5,12.2,9.5c0,5.3-3.3,6.9-3.8,7.2C210.3,36.9,214.7,38.8,214.7,44.5z M206.4,43.7c0-2.5-1.8-3.2-4.3-3.2h-1.2
				c-1.2,0-1.5-0.6-1.5-1.5v-4c0-0.9,0.3-1.5,1.5-1.5h0.7c3,0,4.3-1.1,4.3-3.1c0-2.4-1.6-2.9-4.3-2.9h-7.9v19.6h8.8
				C205,47.1,206.4,46,206.4,43.7z"/>
		</g>
	</g>
	<g>
		<g enable-background="new    ">
			<path fill="#676767" d="M245.9,44.3c0,7.4-5.8,11-13.9,11c-6.5,0-14-3.8-14-11.1c0-1.2,0.3-1.5,1.5-1.5h5.1
				c1.2,0,1.8,0.2,1.9,1.5c0.1,0.7,0.3,1.4,1,2.1c1,1.3,3.2,1.7,5.1,1.7c2.8,0,5.1-0.6,5.1-3.6c0-2.9-4.6-3-9.1-4.4
				c-5.3-1.7-10.1-3.8-10.1-10.4c0-6.8,6.2-10.1,12.7-10.4c6.6,0,13.9,3,13.9,9.9c0,1.3-0.3,1.5-1.5,1.5h-5.1c-1,0-1.1-0.7-1.4-1.4
				c-0.2-0.5-0.5-0.9-1.1-1.6c-1-0.9-2.9-1.4-4.4-1.4c-1.7,0-4.6,0.7-4.6,3c0,3.2,7.7,4.3,9.8,5.2C240.3,35.7,245.9,37.2,245.9,44.3
				z"/>
		</g>
	</g>
	<g>
		<g enable-background="new    ">
			<path fill="#676767" d="M26,55.3c-6.2,0-14-3.6-14-11.8V31.2c0-8.2,7.8-11.8,14-11.8c6.5,0,12.9,3.3,13.6,9.9
				c0,1.3-0.4,1.5-1.6,1.5h-5c-1.1,0-1.1-1-1.6-1.6c-1.1-1.7-2.6-2.5-5.4-2.5c-3.4,0-5.8,1.9-5.8,5.2v10.9c0,3.3,2.3,5.2,5.8,5.2
				c2.8,0,5.1-1,5.5-3.6c0.2-1,0.3-1.9,1.4-1.9H38c1.1,0,1.6,0.5,1.6,1.8C39.6,51.1,32.5,55.3,26,55.3z"/>
		</g>
	</g>
	<g>
		<g enable-background="new    ">
			<path fill="#676767" d="M71.8,54.5h-6.2c-1.3,0-1.9-0.5-2.6-1.6l-5.6-8.4c-0.5-0.6-0.6-1.2-0.6-2.7v-4.2c0-0.9,0.3-1.5,1.5-1.5h1
				c2.6,0,5-1.8,5-4.2c0-2.7-2.1-4.4-4.8-4.4h-6.9V53c0,1.2-0.6,1.5-1.5,1.5h-5.2c-0.9,0-1.5-0.3-1.5-1.5V21.7
				c0-0.9,0.3-1.5,1.5-1.5h13.2c5.7,0,8.2,1.1,10.4,3.3c1.9,1.9,3,4.9,3,8.2c0,5.5-4,9.3-7.3,10.4l7.4,10.7
				C73.1,53.6,72.8,54.5,71.8,54.5z"/>
		</g>
	</g>
	<g>
		<g enable-background="new    ">
			<path fill="#676767" d="M103,21.7V26c0,0.9-0.3,1.5-1.5,1.5h-8V53c0,1.2-0.6,1.5-1.5,1.5h-5.2c-0.9,0-1.5-0.3-1.5-1.5V27.5h-8
				c-1.2,0-1.5-0.6-1.5-1.5v-4.3c0-0.9,0.3-1.5,1.5-1.5h24.2C102.7,20.1,103,20.7,103,21.7z"/>
		</g>
	</g>
	
		<rect x="107.8" y="10.1" transform="matrix(-0.7694 0.6387 -0.6387 -0.7694 216.0948 -52.6035)" fill="#F9BC15" width="19.4" height="5.2"/>
	<rect x="108.4" y="16.9" fill="#F9BC15" width="5.2" height="42.9"/>
	<rect x="0" y="67.1" fill="#F9BC15" width="98.7" height="5.2"/>
	<rect x="0" y="17" fill="#F9BC15" width="5.2" height="53.8"/>
	<rect x="15" y="4.5" fill="#F9BC15" width="76.7" height="5.2"/>
	
		<rect x="-0.6" y="10.1" transform="matrix(-0.7694 0.6387 -0.6387 -0.7694 24.3059 16.6655)" fill="#F9BC15" width="19.4" height="5.2"/>
	
		<rect x="94.8" y="61.5" transform="matrix(-0.7694 0.6387 -0.6387 -0.7694 225.7533 46.5834)" fill="#F9BC15" width="19.4" height="5.2"/>
	<rect x="123.4" y="4.5" fill="#F9BC15" width="133.3" height="5.1"/>
	<rect x="251.5" y="5.8" fill="#F9BC15" width="5.2" height="53.8"/>
	<rect x="137.9" y="67" fill="#F9BC15" width="103.7" height="5.2"/>
	
		<rect x="237.8" y="61.4" transform="matrix(0.7694 -0.6387 0.6387 0.7694 16.2193 172.8468)" fill="#F9BC15" width="19.4" height="5.2"/>
	<g>
		<circle fill="#F9BC15" cx="89.4" cy="7.1" r="7.1"/>
		<circle fill="#FFFFFF" cx="89.4" cy="7.1" r="3.2"/>
	</g>
	<g>
		<circle fill="#F9BC15" cx="132.9" cy="69.6" r="7.1"/>
		<circle fill="#FFFFFF" cx="132.9" cy="69.6" r="3.2"/>
	</g>
</g>
</svg>
